# xmcd CD database file
#
# Track frame offsets:
#	187
#	15140
#	31062
#	64727
#	89715
#
# Disc length: 1479 seconds
#
# Revision: 3
# Processed by: cddbd v1.5.1PL2 Copyright (c) Steve Scherf et al.
# Submitted via: CDex 1.60beta1
#
DISCID=3005c505
DTITLE=2 unlimited - Here I Go (Japan)
DYEAR=1995
DGENRE=Rave
TTITLE0=Here I Go (Radio Edit)
TTITLE1=Here I Go (X-Out Edit)
TTITLE2=Here I Go (Dub Down Below)
TTITLE3=Here I Go (X-Out In Club)
TTITLE4=Here I Go (Alex Party Remix)
EXTD=YEAR: 1995
EXTT0=
EXTT1=
EXTT2=
EXTT3=
EXTT4=
PLAYORDER=
